<svg width="18" height="18" viewBox="0 0 18 18" fill="none" xmlns="http://www.w3.org/2000/svg">
<path fill-rule="evenodd" clip-rule="evenodd" d="M3.07489 0.940113C2.48495 0.358504 1.52848 0.358504 0.938545 0.940113C0.34861 1.52172 0.34861 2.4647 0.938545 3.0463L6.9777 9.00024L0.938545 14.9542C0.34861 15.5358 0.34861 16.4788 0.938545 17.0604C1.52848 17.642 2.48495 17.642 3.07489 17.0604L9.11405 11.1064L14.9242 16.8346C15.5141 17.4162 16.4706 17.4162 17.0605 16.8346C17.6504 16.2529 17.6504 15.31 17.0605 14.7284L11.2504 9.00024L17.0605 3.27211C17.6504 2.6905 17.6504 1.74752 17.0605 1.16591C16.4706 0.584306 15.5141 0.584306 14.9242 1.16591L9.11405 6.89404L3.07489 0.940113Z" fill="#00759A"/>
</svg>
