<svg width="56" height="56" viewBox="0 0 56 56" fill="none" xmlns="http://www.w3.org/2000/svg">
<circle cx="28" cy="28" r="28" fill="#00ADE2"/>
<path d="M33.1996 17.2004C33.1996 15.6464 34.4456 14.4004 35.9996 14.4004C37.5536 14.4004 38.7996 15.6464 38.7996 17.2004C38.7996 18.7544 37.5536 20.0004 35.9996 20.0004C34.4456 20.0004 33.1996 18.7544 33.1996 17.2004ZM38.7996 42.4004V34.0004H42.2996L38.7436 23.3184C38.3516 22.1704 37.2876 21.4004 36.0836 21.4004H35.9156C34.7116 21.4004 33.6336 22.1704 33.2556 23.3184L32.0516 26.9304C33.5636 27.7704 34.5996 29.3524 34.5996 31.2004V42.4004H38.7996ZM28.2996 27.7004C29.4616 27.7004 30.3996 26.7624 30.3996 25.6004C30.3996 24.4384 29.4616 23.5004 28.2996 23.5004C27.1376 23.5004 26.1996 24.4384 26.1996 25.6004C26.1996 26.7624 27.1376 27.7004 28.2996 27.7004ZM18.4996 20.0004C20.0536 20.0004 21.2996 18.7544 21.2996 17.2004C21.2996 15.6464 20.0536 14.4004 18.4996 14.4004C16.9456 14.4004 15.6996 15.6464 15.6996 17.2004C15.6996 18.7544 16.9456 20.0004 18.4996 20.0004ZM21.2996 42.4004V32.6004H23.3996V24.2004C23.3996 22.6604 22.1396 21.4004 20.5996 21.4004H16.3996C14.8596 21.4004 13.5996 22.6604 13.5996 24.2004V32.6004H15.6996V42.4004H21.2996ZM30.3996 42.4004V36.8004H31.7996V31.2004C31.7996 30.0524 30.8476 29.1004 29.6996 29.1004H26.8996C25.7516 29.1004 24.7996 30.0524 24.7996 31.2004V36.8004H26.1996V42.4004H30.3996Z" fill="#FEFEFE"/>
</svg>
