<svg width="56" height="56" viewBox="0 0 56 56" fill="none" xmlns="http://www.w3.org/2000/svg">
<circle cx="28" cy="28" r="28" fill="#00ADE2"/>
<path d="M21.5998 28.7785H18.9207C19.0418 28.526 19.2318 28.3129 19.4688 28.1637C19.7059 28.0145 19.9802 27.9354 20.2602 27.9354C20.5403 27.9354 20.8146 28.0145 21.0516 28.1637C21.2886 28.3129 21.4787 28.526 21.5998 28.7785ZM25.8863 27.9326C25.8871 27.5853 25.9127 27.2384 25.9628 26.8947C25.7548 26.9282 25.5563 27.0056 25.3805 27.1218C25.2048 27.2379 25.0557 27.3901 24.9433 27.5683C24.8308 27.7464 24.7576 27.9465 24.7284 28.1552C24.6993 28.3638 24.7148 28.5763 24.7741 28.7785H25.9383C25.9054 28.4977 25.8891 28.2153 25.8893 27.9326H25.8863ZM19.8706 22.4582C18.8755 21.4631 17.5391 20.4114 16.3603 20.4114H16.2623L16.3243 21.6361C16.8915 21.6086 17.8062 22.1643 18.8373 23.1669C18.9021 23.2297 18.9656 23.2928 19.0279 23.3561C19.197 23.3195 19.3692 23.2993 19.5422 23.2956C19.6048 22.9996 19.7169 22.7162 19.8736 22.4574L19.8706 22.4582ZM21.4214 21.2533C21.5861 21.0599 21.7336 20.8524 21.8623 20.6333C22.0571 20.3028 22.2091 19.949 22.3147 19.5801C22.42 19.2137 22.4778 18.8353 22.4869 18.4541C22.495 18.0995 22.4593 17.7452 22.3805 17.3993C22.3458 17.2487 22.3031 17.1 22.2526 16.9539C22.2109 16.833 22.1634 16.7142 22.1103 16.5979C22.0733 16.5173 22.0332 16.4382 21.9901 16.3607C21.9756 16.3331 21.9603 16.3109 21.9519 16.2964L21.9381 16.2741L21.9152 16.2856C21.8998 16.2933 21.8761 16.3048 21.8493 16.3201C21.7709 16.3631 21.6943 16.4093 21.6196 16.4586C21.5132 16.5292 21.411 16.6059 21.3135 16.6883C21.194 16.7863 21.0798 16.8905 20.9713 17.0005C20.7232 17.2537 20.5072 17.5365 20.3283 17.8426C20.1364 18.172 19.9875 18.5246 19.8852 18.8919C19.7799 19.2602 19.7217 19.6404 19.7121 20.0233C19.7046 20.3779 19.7403 20.7321 19.8185 21.0781C19.8815 21.3525 19.9718 21.62 20.088 21.8765C20.1179 21.9438 20.147 22.0012 20.173 22.0494C20.5082 21.6729 20.9415 21.397 21.4245 21.2526L21.4214 21.2533ZM43.2113 18.4595C43.1968 18.451 43.1738 18.4372 43.1463 18.4227C43.0681 18.3806 42.9879 18.3423 42.9059 18.3079C42.8041 18.265 42.6832 18.2176 42.547 18.174C42.3996 18.1271 42.2499 18.088 42.0984 18.0569C41.7507 17.9867 41.3956 17.9597 41.0413 17.9765C40.6603 17.9946 40.2832 18.0615 39.9192 18.1755C39.5547 18.2883 39.206 18.4468 38.8813 18.647C38.5795 18.8338 38.3016 19.0566 38.0538 19.3106L38.0193 19.3474C38.3715 19.7642 38.6438 20.2425 38.8223 20.7581C39.061 20.7868 39.3016 20.7958 39.5418 20.7849C39.9229 20.7669 40.3002 20.7008 40.6647 20.5882C41.0295 20.477 41.3786 20.3196 41.7034 20.1197C42.0055 19.9334 42.2834 19.7105 42.5309 19.4561C42.639 19.345 42.7412 19.2282 42.837 19.1063C42.9251 18.993 42.9993 18.8874 43.0583 18.7925C43.1172 18.6975 43.1623 18.6195 43.1915 18.5628C43.2067 18.5352 43.2175 18.5108 43.2244 18.4955L43.2358 18.4717L43.2113 18.4595ZM37.7614 14.2557C37.7338 14.1477 37.707 14.0459 37.6986 14L36.4908 14.222C36.5068 14.31 36.5343 14.4156 36.5719 14.5611C36.751 15.2546 37.1636 16.8528 36.6661 18.2666C37.0424 18.4623 37.3888 18.7108 37.6948 19.0045C38.5085 17.1636 37.9818 15.1206 37.7583 14.2556L37.7614 14.2557ZM23.4629 42H31.2658C33.9512 42 36.5266 40.9332 38.4255 39.0344C40.3244 37.1355 41.3911 34.5601 41.3911 31.8747V30.0031H13.3398V31.8755C13.34 34.5603 14.4066 37.1352 16.3049 39.0338C18.2033 40.9325 20.778 41.9994 23.4629 42ZM39.0641 27.9326C39.0657 26.3948 38.4721 24.916 37.4077 23.8061C37.6535 23.3802 37.7982 22.9035 37.8304 22.4127C37.8626 21.922 37.7815 21.4305 37.5934 20.9761C37.4053 20.5217 37.1153 20.1167 36.7457 19.7923C36.3761 19.4679 35.9368 19.2328 35.4619 19.1052C34.9869 18.9777 34.489 18.961 34.0066 19.0566C33.5243 19.1522 33.0703 19.3574 32.6799 19.6564C32.2894 19.9554 31.973 20.3402 31.755 20.781C31.537 21.2218 31.4233 21.7069 31.4227 22.1987C30.0401 22.5995 28.8488 23.4864 28.0683 24.696C27.2878 25.9057 26.9707 27.3566 27.1753 28.7815H39.0014C39.0423 28.5004 39.0633 28.2167 39.0641 27.9326ZM23.4912 28.362C23.491 27.7041 23.731 27.0688 24.1663 26.5755C24.0238 26.305 23.8014 26.085 23.5295 25.9453C23.2575 25.8057 22.9491 25.7532 22.6463 25.795C22.3434 25.8368 22.0608 25.9709 21.8368 26.179C21.6129 26.3872 21.4585 26.6592 21.3946 26.9582C21.7618 27.1283 22.0865 27.3781 22.3451 27.6894C22.6037 28.0007 22.7897 28.3657 22.8896 28.7578C23.1023 28.7514 23.3111 28.6991 23.5019 28.6047C23.4948 28.524 23.4912 28.443 23.4912 28.362ZM18.4392 27.4098C18.2531 27.0679 17.9404 26.8126 17.5682 26.6985C17.196 26.5845 16.7939 26.6209 16.4482 26.7998C16.1025 26.9788 15.8407 27.2861 15.7189 27.6559C15.5972 28.0256 15.6252 28.4283 15.7969 28.7777H17.6225C17.7516 28.2504 18.0358 27.774 18.4385 27.4098H18.4392ZM23.5203 23.1662C23.3797 22.8955 23.1594 22.6746 22.8891 22.5334C22.6188 22.3922 22.3117 22.3374 22.0092 22.3766C21.7068 22.4158 21.4237 22.547 21.1984 22.7525C20.973 22.9579 20.8163 23.2277 20.7493 23.5252C21.2779 23.7733 21.7131 24.1843 21.9909 24.6978C22.2261 24.6188 22.4711 24.5727 22.7189 24.5608C22.8387 24.0258 23.1178 23.5395 23.5194 23.1662H23.5203ZM25.3657 23.6638C25.0353 23.6631 24.7142 23.7725 24.4528 23.9745C24.1914 24.1766 24.0047 24.4599 23.9221 24.7797C24.4373 25.0024 24.8714 25.3785 25.1652 25.8567C25.4945 25.7191 25.8478 25.6484 26.2047 25.6486H26.259C26.3845 25.2717 26.5415 24.9061 26.7282 24.5555C26.6124 24.2905 26.4218 24.0651 26.1798 23.9067C25.9378 23.7484 25.655 23.6639 25.3658 23.6638H25.3657ZM20.9415 25.3439C20.808 25.0734 20.5954 24.8498 20.3319 24.703C20.0684 24.5561 19.7665 24.4929 19.4662 24.5218C19.166 24.5506 18.8816 24.6701 18.6508 24.8644C18.4201 25.0586 18.2539 25.3185 18.1744 25.6095C18.7425 25.8492 19.2127 26.2741 19.5086 26.8151C19.7327 26.7506 19.9643 26.7154 20.1975 26.7102C20.3066 26.1919 20.5653 25.7168 20.9415 25.3439Z" fill="white"/>
</svg>
