<svg width="56" height="56" viewBox="0 0 56 56" fill="none" xmlns="http://www.w3.org/2000/svg">
<circle cx="28" cy="28" r="28" fill="#00ADE2"/>
<path d="M37.0914 24.9001H28.7782V27.9629C28.7782 30.1341 27.0116 31.9007 24.8404 31.9007C22.6691 31.9007 20.9025 30.1341 20.9025 27.9629V21.3123L17.353 23.4453C16.2974 24.0742 15.6521 25.2173 15.6521 26.4424V29.0293L11.2767 31.5561C10.4399 32.0374 10.1501 33.1094 10.6368 33.9462L15.0122 41.5265C15.4935 42.3633 16.5654 42.6477 17.4022 42.1664L23.0574 38.9013H30.5283C32.459 38.9013 34.0286 37.3316 34.0286 35.401H34.9037C35.8718 35.401 36.6539 34.6189 36.6539 33.6508V30.1505H37.0914C37.8188 30.1505 38.404 29.5653 38.404 28.8379V26.2127C38.404 25.4853 37.8188 24.9001 37.0914 24.9001ZM45.1694 22.8546L40.794 15.2743C40.3128 14.4375 39.2408 14.1531 38.404 14.6344L32.7488 17.8995H27.1593C26.503 17.8995 25.8631 18.0855 25.3052 18.43L23.4731 19.5731C22.9589 19.8903 22.6527 20.4536 22.6527 21.0552V27.9629C22.6527 29.1715 23.6317 30.1505 24.8404 30.1505C26.0491 30.1505 27.028 29.1715 27.028 27.9629V23.1499H37.0914C38.7814 23.1499 40.1541 24.5227 40.1541 26.2127V27.7714L44.5295 25.2447C45.3663 24.7579 45.6507 23.6914 45.1694 22.8546Z" fill="#FEFEFE"/>
</svg>
