<svg width="24" height="24" viewBox="0 0 24 24" fill="none" xmlns="http://www.w3.org/2000/svg">
<path d="M22 12.5H4C3.44 12.5 3 12.17 3 11.75C3 11.33 3.44 11 4 11H22C22.56 11 23 11.33 23 11.75C23 12.17 22.56 12.5 22 12.5Z" fill="#00ADE2"/>
<path d="M9 17.75C8.90164 17.7512 8.80411 17.7318 8.71369 17.6931C8.62328 17.6543 8.54197 17.5971 8.475 17.525L3.225 12.275C2.925 11.975 2.925 11.51 3.225 11.21L8.475 5.975C8.775 5.675 9.24 5.675 9.54 5.975C9.84 6.275 9.84 6.74 9.54 7.04L4.815 11.765L9.54 16.49C9.84 16.79 9.84 17.255 9.54 17.555C9.39 17.705 9.195 17.78 9.015 17.78L9 17.75Z" fill="#00ADE2"/>
</svg>
