<svg width="20" height="28" viewBox="0 0 20 28" fill="none" xmlns="http://www.w3.org/2000/svg">
<path d="M10.0003 13.3332C9.11627 13.3332 8.26842 12.982 7.6433 12.3569C7.01818 11.7317 6.66699 10.8839 6.66699 9.99984C6.66699 9.11578 7.01818 8.26794 7.6433 7.64281C8.26842 7.01769 9.11627 6.6665 10.0003 6.6665C10.8844 6.6665 11.7322 7.01769 12.3573 7.64281C12.9825 8.26794 13.3337 9.11578 13.3337 9.99984C13.3337 10.4376 13.2474 10.871 13.0799 11.2754C12.9124 11.6799 12.6669 12.0473 12.3573 12.3569C12.0478 12.6664 11.6804 12.9119 11.2759 13.0794C10.8715 13.247 10.4381 13.3332 10.0003 13.3332ZM10.0003 0.666504C7.52497 0.666504 5.151 1.64983 3.40066 3.40017C1.65032 5.15051 0.666992 7.52448 0.666992 9.99984C0.666992 16.9998 10.0003 27.3332 10.0003 27.3332C10.0003 27.3332 19.3337 16.9998 19.3337 9.99984C19.3337 7.52448 18.3503 5.15051 16.6 3.40017C14.8496 1.64983 12.4757 0.666504 10.0003 0.666504Z" fill="#00ADE2"/>
</svg>
