<svg width="327" height="278" viewBox="0 0 327 278" fill="none" xmlns="http://www.w3.org/2000/svg">
<path d="M277.281 98.8893C304.588 98.8893 326.725 76.7521 326.725 49.4446C326.725 22.1371 304.588 0 277.281 0C249.973 0 227.836 22.1371 227.836 49.4446C227.836 76.7521 249.973 98.8893 277.281 98.8893Z" fill="#5C5F61"/>
<path d="M302.017 55.693L246.225 87.919C255.437 95.3609 267.015 99.2489 278.852 98.8759C290.689 98.5029 301.999 93.8936 310.725 85.8864C319.451 77.8793 325.013 67.0061 326.399 55.2446C327.786 43.4831 324.905 31.6147 318.28 21.7979C322.703 34.4087 319.964 45.3361 302.017 55.693Z" fill="#44484A"/>
<path d="M267.566 83.5822L233.115 63.6104C243.7 103.383 249.62 163.07 246.895 206.823L260.676 214.783C268.736 188.52 270.547 134.796 267.566 83.5822Z" fill="#44484A"/>
<path d="M309.45 83.2539L294.928 101.799L294.557 155.937C294.478 167.853 291.317 179.546 285.38 189.878C279.442 200.21 270.932 208.829 260.676 214.897C268.921 183.513 269.863 130.259 267.566 83.6533L309.45 83.2539Z" fill="#5C5F61"/>
<path d="M263.614 144.924L264.627 145.509C265.537 145.974 266.544 146.216 267.566 146.216C268.588 146.216 269.595 145.974 270.505 145.509L278.394 140.958C280.02 140.017 281.332 140.773 281.332 142.656V143.869C281.278 144.887 280.983 145.878 280.473 146.761C279.962 147.643 279.249 148.393 278.394 148.947L270.376 153.598C269.471 154.062 268.469 154.304 267.452 154.304C266.435 154.304 265.432 154.062 264.527 153.598L263.586 153.027C262.747 152.449 262.053 151.684 261.558 150.793C261.063 149.902 260.781 148.909 260.733 147.892V146.722C260.676 144.753 261.988 143.983 263.614 144.924Z" fill="#00759A"/>
<path d="M262.373 162.657L263.386 163.242C264.296 163.706 265.303 163.948 266.325 163.948C267.346 163.948 268.354 163.706 269.263 163.242L277.152 158.691C278.779 157.749 280.091 158.505 280.091 160.388V161.544C280.045 162.555 279.763 163.54 279.268 164.422C278.772 165.304 278.077 166.058 277.238 166.623L269.221 171.273C268.316 171.738 267.313 171.98 266.296 171.98C265.279 171.98 264.277 171.738 263.372 171.273L262.416 170.703C261.58 170.121 260.889 169.356 260.394 168.465C259.9 167.575 259.615 166.584 259.563 165.567V164.397C259.434 162.414 260.747 161.715 262.373 162.657Z" fill="#00759A"/>
<path d="M261.146 180.389L262.159 180.974C263.069 181.438 264.076 181.68 265.098 181.68C266.12 181.68 267.127 181.438 268.037 180.974L275.926 176.423C277.552 175.481 278.864 176.237 278.864 178.12V179.262C278.812 180.282 278.519 181.276 278.008 182.162C277.497 183.047 276.783 183.799 275.926 184.355L267.908 189.005C267.003 189.469 266.001 189.712 264.984 189.712C263.967 189.712 262.964 189.469 262.059 189.005L261.118 188.434C260.28 187.855 259.587 187.09 259.092 186.2C258.597 185.309 258.314 184.316 258.265 183.299V182.129C258.208 180.203 259.52 179.447 261.146 180.389Z" fill="#00759A"/>
<path d="M212.829 19.7579C219.434 15.9633 228.35 16.1059 238.236 20.942C239.277 21.4412 240.318 21.9976 241.388 22.611C242.458 23.2244 243.871 24.0376 245.097 24.9506C247.179 26.3315 249.175 27.8369 251.075 29.4585C254.7 32.5447 258.042 35.9487 261.061 39.6299C269.385 49.8499 275.548 61.6527 279.178 74.3239C280.9 80.2794 281.802 86.4418 281.86 92.6409C281.86 105.223 277.58 114.153 270.547 118.505L295.455 104.153C300.07 101.163 303.842 97.0397 306.412 92.1775C308.982 87.3154 310.263 81.8761 310.134 76.3781C310.085 70.466 309.26 64.5859 307.681 58.8885C304.061 45.8759 297.764 33.7627 289.192 23.3243C286.174 19.6431 282.832 16.2391 279.207 13.1529C277.339 11.515 275.371 9.99518 273.315 8.60219C272.088 7.76052 270.847 6.97591 269.606 6.26263C268.575 5.65964 267.513 5.11202 266.425 4.62208C262 2.52971 257.154 1.48384 252.261 1.56547C247.368 1.64711 242.559 2.85407 238.207 5.09285L237.508 5.47802C237.223 5.64921 236.909 5.8204 236.624 6.00585L212.829 19.7579Z" fill="#00759A"/>
<path opacity="0.1" d="M295.455 104.153C300.07 101.163 303.843 97.0399 306.412 92.1777C308.982 87.3156 310.264 81.8763 310.135 76.3783C310.085 70.4662 309.26 64.5861 307.681 58.8887L279.15 74.3811C280.872 80.3367 281.774 86.499 281.832 92.6982C281.832 105.28 277.552 114.211 270.519 118.562L295.455 104.153Z" fill="#011217"/>
<path d="M200.96 45.9211C200.96 71.7276 219.063 103.098 241.403 115.994C252.63 122.485 262.801 123.127 270.148 118.733C270.287 118.668 270.421 118.591 270.547 118.505C277.552 114.225 281.86 105.223 281.86 92.641C281.86 66.8345 263.757 35.4501 241.417 22.6111C230.276 16.1773 220.161 15.5496 212.886 19.7579C205.61 23.9663 200.96 32.9964 200.96 45.9211Z" fill="#00759A"/>
<path opacity="0.2" d="M200.96 45.9211C200.96 71.7276 219.063 103.098 241.403 115.994C252.63 122.485 262.801 123.127 270.148 118.733C270.287 118.668 270.421 118.591 270.547 118.505C277.552 114.225 281.86 105.223 281.86 92.641C281.86 66.8345 263.757 35.4501 241.417 22.6111C230.276 16.1773 220.161 15.5496 212.886 19.7579C205.61 23.9663 200.96 32.9964 200.96 45.9211Z" fill="#011217"/>
<path d="M76.9202 39.2445C76.9202 39.2445 117.734 60.2007 152.528 120.559C158.802 131.387 164.331 142.631 169.076 154.211C186.58 197.165 185.125 226.738 185.125 226.738C197.293 196.951 212.415 166.109 237.637 142.485C247.515 133.299 257.872 124.642 268.664 116.55C275.341 112.67 279.235 104.253 279.249 92.655C279.114 84.5271 277.564 76.4849 274.67 68.8885C272.819 63.7323 270.518 58.7487 267.794 53.9951C260.661 41.7125 250.904 30.999 240.119 24.7649C230.133 18.9731 220.832 18.1314 214.141 21.9118C201.737 27.2119 189.061 31.85 176.166 35.8065C143.084 45.9351 108.804 43.6098 76.9202 39.2445Z" fill="#00759A"/>
<path opacity="0.6" d="M76.9202 39.2445C76.9202 39.2445 117.734 60.2007 152.528 120.559C158.802 131.387 164.331 142.631 169.076 154.211C186.58 197.165 185.125 226.738 185.125 226.738C197.293 196.951 212.415 166.109 237.637 142.485C247.515 133.299 257.872 124.642 268.664 116.55C275.341 112.67 279.235 104.253 279.249 92.655C279.114 84.5271 277.564 76.4849 274.67 68.8885C272.819 63.7323 270.518 58.7487 267.794 53.9951C260.661 41.7125 250.904 30.999 240.119 24.7649C230.133 18.9731 220.832 18.1314 214.141 21.9118C201.737 27.2119 189.061 31.85 176.166 35.8065C143.084 45.9351 108.804 43.6098 76.9202 39.2445Z" fill="#FEFEFE"/>
<path opacity="0.1" d="M169.133 154.225C186.637 197.179 185.182 226.752 185.182 226.752C197.35 196.965 212.472 166.123 237.694 142.499C247.572 133.314 257.929 124.657 268.721 116.564C275.398 112.684 279.292 104.267 279.306 92.6694C279.171 84.5415 277.621 76.4993 274.727 68.9028C243.771 84.3525 193.741 112.912 169.133 154.225Z" fill="#011217"/>
<path d="M0 97.4772C0 124.382 8.27406 153.841 22.0689 181.031C39.744 215.868 66.4207 246.967 96.2501 264.199C149.418 294.885 192.515 270.006 192.515 208.564C192.359 193.84 190.219 179.205 186.152 165.053C175.995 128.747 154.596 92.3843 127.82 66.1927C124.016 62.5026 120.15 59.0266 116.222 55.7645C114.567 54.3379 112.898 53.0826 111.215 51.8129C108.818 50.0012 106.407 48.2608 103.968 46.6345C101.528 45.0082 98.8607 43.3249 96.2644 41.8413C43.1535 11.1987 0 36.0922 0 97.4772Z" fill="#00759A"/>
<path opacity="0.1" d="M22.1118 181.045C39.7869 215.882 66.4636 246.981 96.293 264.213C149.461 294.899 192.557 270.02 192.557 208.578C192.402 193.854 190.262 179.219 186.195 165.067C182.6 172.999 169.675 184.34 163.898 176.394C167.457 188.958 169.333 201.939 169.476 214.997C169.476 232.629 165.538 246.866 158.063 256.182C151.715 264.128 142.999 268.165 132.157 268.136C121.629 268.136 109.332 264.27 96.7353 256.995C71.3425 242.344 47.9897 215.996 31.4415 186.152C31.4843 186.209 28.1747 189.005 22.1118 181.045Z" fill="#011217"/>
<path d="M6.63354 100.915C6.63354 128.019 16.1487 158.619 31.4843 186.209C48.0324 216.053 71.428 242.401 96.778 257.052C109.417 264.327 121.672 268.222 132.2 268.193C143.041 268.193 151.758 264.185 158.106 256.239C165.538 246.923 169.518 232.686 169.518 215.054C169.375 201.996 167.5 189.015 163.941 176.451C162.514 171.473 160.988 166.465 159.162 161.472C155.931 152.641 152.119 144.035 147.749 135.709C146.85 133.968 145.937 132.256 144.996 130.559C143.455 127.706 141.843 124.853 140.16 122.171C134.544 112.804 128.225 103.876 121.258 95.4653C121.186 95.3798 121.087 95.2799 121.015 95.18C116.515 89.7787 111.719 84.6305 106.65 79.7589C103.069 76.3209 99.4029 73.1254 95.6653 70.1296C94.1103 68.8742 92.5268 67.6759 90.9291 66.5061C89.0175 65.0796 87.0774 63.7671 85.1372 62.4832C83.1971 61.1993 81.314 60.0724 79.431 58.9596C66.7489 51.6271 54.509 47.7897 43.9667 47.7754C20.5568 47.7754 6.63354 67.6617 6.63354 100.915Z" fill="#00759A"/>
<path opacity="0.4" d="M6.63354 100.915C6.63354 128.019 16.1487 158.619 31.4843 186.209C48.0324 216.053 71.428 242.401 96.778 257.052C109.417 264.327 121.672 268.222 132.2 268.193C143.041 268.193 151.758 264.185 158.106 256.239C165.538 246.923 169.518 232.686 169.518 215.054C169.375 201.996 167.5 189.015 163.941 176.451C162.514 171.473 160.988 166.465 159.162 161.472C155.931 152.641 152.119 144.035 147.749 135.709C146.85 133.968 145.937 132.256 144.996 130.559C143.455 127.706 141.843 124.853 140.16 122.171C134.544 112.804 128.225 103.876 121.258 95.4653C121.186 95.3798 121.087 95.2799 121.015 95.18C116.515 89.7787 111.719 84.6305 106.65 79.7589C103.069 76.3209 99.4029 73.1254 95.6653 70.1296C94.1103 68.8742 92.5268 67.6759 90.9291 66.5061C89.0175 65.0796 87.0774 63.7671 85.1372 62.4832C83.1971 61.1993 81.314 60.0724 79.431 58.9596C66.7489 51.6271 54.509 47.7897 43.9667 47.7754C20.5568 47.7754 6.63354 67.6617 6.63354 100.915Z" fill="#011217"/>
<path d="M76.2498 124.282L109.061 182.357C122.856 175.053 139.632 165.966 160.845 166.451C160.303 164.796 159.732 163.142 159.119 161.487C155.886 152.653 152.073 144.041 147.706 135.709C146.812 133.978 145.899 132.266 144.967 130.573C143.412 127.72 141.8 124.867 140.131 122.171C134.517 112.809 128.208 103.883 121.258 95.4656C121.258 95.38 121.087 95.2801 121.015 95.1803C120.002 93.982 118.99 92.7694 117.948 91.5996C107.349 110.402 76.2498 124.282 76.2498 124.282Z" fill="#44484A"/>
<path d="M104.524 183.284C111.657 183.284 115.937 177.578 115.937 167.806V167.507C115.937 152.285 105.195 133.697 92.0134 126.136L91.7566 125.994C88.7523 124.112 85.312 123.041 81.7706 122.884C74.6378 122.884 70.3582 128.676 70.3582 138.362V138.662C70.3582 153.883 81.1001 172.471 94.2816 180.032L94.5383 180.189C97.5465 182.06 100.985 183.126 104.524 183.284Z" fill="#00759A"/>
</svg>
